# xmcd CD database file
#
# Track frame offsets:
#	150
#	39275
#	106071
#	178045
#	266947
#	297656
#
# Disc length: 4129 seconds
#
# Revision: 0
# Processed by: cddbd v1.5.2PL0 Copyright (c) Steve Scherf et al.
# Submitted via: CDex 1.70beta2
#
DISCID=55101f06
DTITLE=Lynn Grabhorn - Excusez-moi mais votre vie attend
DYEAR=2005
DGENRE=New Age
TTITLE0=La force EST avec vous
TTITLE1=L'argent, toujours l'argent !
TTITLE2=Les relations Interpersonnelles et les autres trésors
TTITLE3=La vie et la mort du corps
TTITLE4=L'armure du bien-être
TTITLE5=Trente jours vers la liberté
EXTD=YEAR: 2005
EXTT0=
EXTT1=
EXTT2=
EXTT3=
EXTT4=
EXTT5=
PLAYORDER=
